<?xml version="1.0" standalone="no"?>
<!DOCTYPE svg PUBLIC "-//W3C//DTD SVG 20010904//EN"
 "http://www.w3.org/TR/2001/REC-SVG-20010904/DTD/svg10.dtd">
<svg version="1.0" xmlns="http://www.w3.org/2000/svg"
 width="512.000000pt" height="512.000000pt" viewBox="0 0 512.000000 512.000000"
 preserveAspectRatio="xMidYMid meet">
<metadata>
Created by potrace 1.16, written by Peter Selinger 2001-2019
</metadata>
<g transform="translate(0.000000,512.000000) scale(0.100000,-0.100000)"
fill="#000000" stroke="none">
<path d="M3619 4519 c-41 -5 -235 -36 -430 -69 -195 -33 -599 -98 -899 -144
-715 -111 -1307 -211 -1398 -236 -155 -43 -264 -123 -296 -217 -32 -92 -19
-244 44 -551 17 -78 102 -578 190 -1110 210 -1271 206 -1245 236 -1306 63
-127 185 -196 348 -196 107 0 577 54 703 82 52 11 52 11 62 60 6 27 11 67 11
90 l0 40 -62 -5 c-35 -2 -136 -13 -226 -23 -258 -29 -330 -7 -391 119 -41 83
-66 184 -101 412 -84 543 -145 927 -186 1165 -123 710 -174 1030 -174 1085 0
131 41 190 156 224 38 11 211 41 384 66 550 78 721 104 880 134 254 48 432 75
805 122 510 63 594 54 657 -71 36 -71 54 -144 74 -294 8 -67 24 -179 35 -251
47 -314 93 -641 149 -1060 60 -441 101 -741 140 -1020 11 -77 20 -160 20 -185
0 -57 -38 -140 -76 -167 -61 -43 -214 -76 -444 -98 -36 -3 -207 -23 -380 -45
-173 -22 -386 -46 -473 -54 -176 -17 -190 -23 -190 -84 0 -51 11 -80 34 -92
35 -20 171 -22 294 -6 401 51 628 78 845 101 135 14 272 30 305 36 121 22 222
96 269 198 18 40 21 64 21 181 -1 80 -8 177 -19 240 -9 58 -44 287 -76 510
-33 223 -71 475 -85 560 -29 181 -53 370 -95 750 -48 436 -94 722 -136 850
-42 127 -116 206 -227 244 -61 20 -198 28 -298 15z"/>
<path d="M2674 3381 c-107 -49 -77 -155 101 -351 43 -47 140 -161 216 -255 76
-93 172 -210 214 -260 42 -49 74 -96 73 -103 -2 -8 -50 -31 -108 -52 -58 -20
-143 -55 -190 -77 -47 -22 -103 -46 -125 -53 -140 -45 -206 -116 -175 -190 16
-38 81 -70 143 -70 96 0 638 208 705 270 41 38 54 78 50 146 -3 56 -9 71 -53
134 -27 40 -119 158 -204 264 -84 105 -194 244 -243 309 -200 264 -301 336
-404 288z"/>
<path d="M3489 3366 c-127 -45 -176 -178 -113 -305 38 -75 88 -106 170 -106
54 0 69 5 106 31 132 92 124 284 -15 364 -56 32 -92 36 -148 16z"/>
<path d="M2125 3152 c-39 -13 -81 -44 -103 -77 -86 -125 -26 -294 118 -335 46
-13 101 3 146 42 104 91 99 235 -11 337 -38 35 -51 41 -87 40 -24 -1 -52 -4
-63 -7z"/>
<path d="M2185 1907 c-39 -39 -45 -75 -22 -130 14 -33 255 -360 333 -454 58
-68 114 -91 167 -70 102 43 86 145 -55 355 -73 110 -182 245 -233 290 -39 34
-51 39 -100 41 -52 2 -58 0 -90 -32z"/>
</g>
</svg>
