<svg version="1.0" xmlns="http://www.w3.org/2000/svg" width="682.667" height="682.667" viewBox="0 0 512 512"><path d="M361.9 60.1c-4.1.5-23.5 3.6-43 6.9S259 76.8 229 81.4C157.5 92.5 98.3 102.5 89.2 105c-15.5 4.3-26.4 12.3-29.6 21.7-3.2 9.2-1.9 24.4 4.4 55.1 1.7 7.8 10.2 57.8 19 111 21 127.1 20.6 124.5 23.6 130.6 6.3 12.7 18.5 19.6 34.8 19.6 10.7 0 57.7-5.4 70.3-8.2 5.2-1.1 5.2-1.1 6.2-6 .6-2.7 1.1-6.7 1.1-9v-4l-6.2.5c-3.5.2-13.6 1.3-22.6 2.3-25.8 2.9-33 .7-39.1-11.9-4.1-8.3-6.6-18.4-10.1-41.2-8.4-54.3-14.5-92.7-18.6-116.5-12.3-71-17.4-103-17.4-108.5 0-13.1 4.1-19 15.6-22.4 3.8-1.1 21.1-4.1 38.4-6.6 55-7.8 72.1-10.4 88-13.4 25.4-4.8 43.2-7.5 80.5-12.2 51-6.3 59.4-5.4 65.7 7.1 3.6 7.1 5.4 14.4 7.4 29.4.8 6.7 2.4 17.9 3.5 25.1 4.7 31.4 9.3 64.1 14.9 106 6 44.1 10.1 74.1 14 102 1.1 7.7 2 16 2 18.5 0 5.7-3.8 14-7.6 16.7-6.1 4.3-21.4 7.6-44.4 9.8-3.6.3-20.7 2.3-38 4.5s-38.6 4.6-47.3 5.4c-17.6 1.7-19 2.3-19 8.4 0 5.1 1.1 8 3.4 9.2 3.5 2 17.1 2.2 29.4.6 40.1-5.1 62.8-7.8 84.5-10.1 13.5-1.4 27.2-3 30.5-3.6 12.1-2.2 22.2-9.6 26.9-19.8 1.8-4 2.1-6.4 2.1-18.1-.1-8-.8-17.7-1.9-24-.9-5.8-4.4-28.7-7.6-51-3.3-22.3-7.1-47.5-8.5-56-2.9-18.1-5.3-37-9.5-75-4.8-43.6-9.4-72.2-13.6-85-4.2-12.7-11.6-20.6-22.7-24.4-6.1-2-19.8-2.8-29.8-1.5"/><path d="M267.4 173.9c-10.7 4.9-7.7 15.5 10.1 35.1 4.3 4.7 14 16.1 21.6 25.5 7.6 9.3 17.2 21 21.4 26 4.2 4.9 7.4 9.6 7.3 10.3-.2.8-5 3.1-10.8 5.2-5.8 2-14.3 5.5-19 7.7s-10.3 4.6-12.5 5.3c-14 4.5-20.6 11.6-17.5 19 1.6 3.8 8.1 7 14.3 7 9.6 0 63.8-20.8 70.5-27 4.1-3.8 5.4-7.8 5-14.6-.3-5.6-.9-7.1-5.3-13.4-2.7-4-11.9-15.8-20.4-26.4-8.4-10.5-19.4-24.4-24.3-30.9-20-26.4-30.1-33.6-40.4-28.8m81.5 1.5c-12.7 4.5-17.6 17.8-11.3 30.5 3.8 7.5 8.8 10.6 17 10.6 5.4 0 6.9-.5 10.6-3.1 13.2-9.2 12.4-28.4-1.5-36.4-5.6-3.2-9.2-3.6-14.8-1.6m-136.4 21.4c-3.9 1.3-8.1 4.4-10.3 7.7-8.6 12.5-2.6 29.4 11.8 33.5 4.6 1.3 10.1-.3 14.6-4.2 10.4-9.1 9.9-23.5-1.1-33.7-3.8-3.5-5.1-4.1-8.7-4-2.4.1-5.2.4-6.3.7m6 124.5c-3.9 3.9-4.5 7.5-2.2 13 1.4 3.3 25.5 36 33.3 45.4 5.8 6.8 11.4 9.1 16.7 7 10.2-4.3 8.6-14.5-5.5-35.5-7.3-11-18.2-24.5-23.3-29-3.9-3.4-5.1-3.9-10-4.1-5.2-.2-5.8 0-9 3.2"/></svg>